<?xml version="1.0" standalone="no"?>
<!DOCTYPE svg PUBLIC "-//W3C//DTD SVG 20010904//EN"
 "http://www.w3.org/TR/2001/REC-SVG-20010904/DTD/svg10.dtd">
<svg version="1.0" xmlns="http://www.w3.org/2000/svg"
 width="512.000000pt" height="512.000000pt" viewBox="0 0 512.000000 512.000000"
 preserveAspectRatio="xMidYMid meet">

<g transform="translate(0.000000,512.000000) scale(0.100000,-0.100000)"
fill="#000000" stroke="none">
<path d="M1157 4770 c-93 -24 -171 -85 -218 -172 l-34 -63 -3 -167 -4 -168
-223 0 c-195 0 -231 -3 -288 -20 -121 -38 -225 -125 -282 -238 -43 -86 -55
-154 -55 -317 0 -169 8 -195 59 -195 50 0 56 17 61 209 5 166 7 179 32 231 39
80 88 132 160 171 l63 34 2055 9 c1459 6 2079 5 2138 -2 144 -19 238 -85 300
-212 l27 -55 0 -675 0 -675 -33 -67 c-40 -81 -110 -148 -190 -180 l-57 -23
-2105 0 -2105 0 -55 22 c-81 33 -153 101 -192 181 l-33 66 -5 294 c-5 276 -6
295 -24 308 -27 19 -52 18 -76 -6 -19 -19 -20 -33 -20 -285 0 -154 5 -286 11
-317 30 -143 130 -271 260 -333 97 -45 166 -55 391 -55 l187 0 3 -597 3 -598
30 -59 c139 -276 542 -232 620 69 13 50 15 148 15 622 l0 563 990 0 990 0 0
-563 c0 -475 2 -572 15 -622 27 -103 88 -177 185 -224 45 -21 69 -26 135 -26
133 0 232 59 296 177 l34 63 3 596 3 597 227 4 c203 4 234 7 291 27 165 58
285 193 320 359 7 35 11 262 11 685 0 532 -2 642 -15 691 -45 170 -162 296
-324 346 -55 17 -93 20 -286 20 l-223 0 -4 163 c-3 160 -3 163 -36 229 -59
120 -160 182 -297 183 -102 0 -171 -31 -243 -110 -72 -79 -84 -120 -90 -307
l-4 -158 -988 0 -988 0 -4 158 c-6 198 -18 233 -102 318 -43 43 -76 66 -111
78 -63 21 -149 28 -198 16z m137 -121 c21 -6 58 -29 82 -51 61 -57 75 -109 72
-269 l-3 -124 -213 -3 -214 -2 4 158 c3 153 4 160 30 200 55 82 148 117 242
91z m2657 0 c52 -16 103 -61 128 -112 18 -38 21 -62 21 -190 l0 -147 -212 2
-213 3 -3 115 c-4 144 2 187 34 237 55 84 150 120 245 92z m-2503 -3161 l-3
-583 -28 -48 c-69 -118 -222 -143 -324 -54 -75 66 -73 43 -73 690 l0 577 215
0 216 0 -3 -582z m2652 5 c0 -647 2 -624 -73 -690 -47 -41 -97 -57 -165 -50
-69 7 -122 42 -159 104 l-28 48 -3 583 -3 582 216 0 215 0 0 -577z"/>
<path d="M1180 3587 c-59 -21 -60 -23 -60 -454 l0 -392 24 -28 24 -28 197 -3
c221 -4 245 2 245 58 0 56 -14 60 -201 60 l-169 0 0 140 0 140 168 0 c151 0
171 2 185 18 24 26 21 68 -5 86 -18 13 -54 16 -185 16 l-163 0 0 140 0 140
173 0 c121 0 177 4 185 12 17 17 15 73 -5 89 -22 19 -363 24 -413 6z"/>
<path d="M296 3571 c-17 -19 -15 -37 33 -408 28 -213 55 -404 61 -424 13 -47
54 -68 96 -47 23 11 42 45 108 196 44 100 83 179 87 175 4 -5 41 -84 82 -178
79 -181 103 -213 151 -201 14 3 33 17 41 29 10 15 32 156 65 402 53 403 57
444 38 463 -16 16 -73 15 -87 -2 -10 -12 -91 -569 -91 -624 0 -30 -18 2 -75
133 -30 72 -65 138 -76 148 -30 24 -81 22 -107 -5 -11 -13 -47 -83 -79 -157
-52 -122 -58 -132 -65 -105 -4 16 -24 155 -44 309 -25 199 -40 285 -51 298
-21 23 -66 22 -87 -2z"/>
<path d="M1652 3578 c-9 -9 -12 -107 -12 -415 l0 -403 34 -38 34 -37 147 -3
c120 -3 150 -1 170 12 32 21 40 52 21 81 -16 24 -19 25 -151 25 l-135 0 0 368
c0 409 -1 415 -60 420 -19 2 -41 -3 -48 -10z"/>
<path d="M2255 3574 c-95 -34 -192 -138 -236 -253 -27 -70 -36 -213 -19 -294
17 -86 72 -187 130 -241 110 -103 242 -129 367 -72 70 32 163 121 163 156 0
39 -19 60 -53 60 -25 0 -42 -10 -79 -49 -46 -47 -113 -81 -161 -81 -52 0 -104
27 -159 81 -48 47 -60 67 -78 128 -69 226 51 462 235 462 65 0 104 -18 172
-82 28 -27 58 -49 65 -49 29 0 58 31 58 63 0 45 -96 136 -174 166 -67 25 -169
27 -231 5z"/>
<path d="M3008 3577 c-95 -36 -194 -121 -236 -203 -35 -69 -55 -155 -55 -239
0 -141 47 -249 149 -345 81 -76 149 -103 259 -103 70 -1 89 3 147 30 285 133
349 534 122 760 -78 78 -146 107 -259 110 -57 2 -103 -2 -127 -10z m239 -136
c51 -26 96 -75 130 -141 25 -50 28 -65 28 -160 0 -95 -3 -111 -28 -162 -92
-187 -303 -231 -443 -91 -136 136 -132 380 10 511 25 23 58 48 74 54 72 29
159 25 229 -11z"/>
<path d="M3570 3570 c-19 -19 -20 -33 -20 -435 0 -402 1 -416 20 -435 25 -25
41 -25 71 -1 l24 19 5 310 5 310 82 -142 c46 -79 90 -149 99 -157 21 -17 77
-17 98 0 9 8 53 78 99 157 l82 142 5 -310 5 -310 24 -19 c30 -24 46 -24 71 1
19 19 20 33 20 435 0 402 -1 416 -20 435 -25 25 -81 26 -102 3 -9 -10 -60 -94
-113 -188 -54 -93 -103 -178 -110 -188 -10 -15 -27 9 -123 175 -61 106 -116
199 -123 206 -20 19 -76 15 -99 -8z"/>
<path d="M4372 3567 c-22 -23 -22 -26 -22 -424 0 -221 3 -409 6 -418 15 -37
56 -45 243 -45 116 0 189 4 206 12 33 15 42 51 21 83 -16 24 -18 25 -189 27
l-172 3 0 135 0 135 173 5 c157 5 175 7 188 24 19 27 18 52 -6 76 -18 18 -33
20 -190 20 l-171 0 3 138 3 137 169 3 c140 2 173 5 188 19 23 21 23 55 0 76
-16 15 -47 17 -224 17 -201 0 -205 0 -226 -23z"/>
<path d="M70 3340 c-29 -29 -29 -141 0 -170 11 -11 29 -20 40 -20 40 0 60 35
60 105 0 70 -20 105 -60 105 -11 0 -29 -9 -40 -20z"/>
</g>
</svg>
